HIERARCHY
ROOT RootJoint
{
    OFFSET   0.000000   0.000000   0.000000
    CHANNELS 6 Xposition Yposition Zposition Xrotation Yrotation Zrotation
    JOINT pelvis_lowerback
    {
        OFFSET   0.000000   0.093605   0.000000
        CHANNELS 3 Xrotation Yrotation Zrotation
        JOINT lowerback_torso
        {
            OFFSET   0.000000   0.100000   0.000000
            CHANNELS 3 Xrotation Yrotation Zrotation
            JOINT torso_head
            {
                OFFSET   0.000000   0.282350   0.000000
                CHANNELS 3 Xrotation Yrotation Zrotation
                End Site
                {
                    OFFSET   0.000000   0.192650   0.000000
                }
            }
            JOINT rTorso_Clavicle
            {
                OFFSET  -0.001000   0.157500   0.000000
                CHANNELS 3 Xrotation Yrotation Zrotation
                JOINT rShoulder
                {
                    OFFSET  -0.117647   0.000000   0.000000
                    CHANNELS 3 Xrotation Yrotation Zrotation
                    JOINT rElbow
                    {
                        OFFSET  -0.245000   0.000000   0.000000
                        CHANNELS 3 Xrotation Yrotation Zrotation
                        JOINT rWrist
                        {
                            OFFSET  -0.240000   0.000000   0.000000
                            CHANNELS 3 Xrotation Yrotation Zrotation
                            End Site
                            {
                                OFFSET  -0.116353  -0.002500   0.000000
                            }
                        }
                    }
                }
            }
            JOINT lTorso_Clavicle
            {
                OFFSET   0.001000   0.157500   0.000000
                CHANNELS 3 Xrotation Yrotation Zrotation
                JOINT lShoulder
                {
                    OFFSET   0.117647   0.000000   0.000000
                    CHANNELS 3 Xrotation Yrotation Zrotation
                    JOINT lElbow
                    {
                        OFFSET   0.245000   0.000000   0.000000
                        CHANNELS 3 Xrotation Yrotation Zrotation
                        JOINT lWrist
                        {
                            OFFSET   0.240000   0.000000   0.000000
                            CHANNELS 3 Xrotation Yrotation Zrotation
                            End Site
                            {
                                OFFSET   0.116353  -0.002500   0.000000
                            }
                        }
                    }
                }
            }
        }
    }
    JOINT rHip
    {
        OFFSET  -0.100000  -0.051395   0.000000
        CHANNELS 3 Xrotation Yrotation Zrotation
        JOINT rKnee
        {
            OFFSET   0.000000  -0.410000   0.000000
            CHANNELS 3 Xrotation Yrotation Zrotation
            JOINT rAnkle
            {
                OFFSET   0.000000  -0.390000   0.000000
                CHANNELS 3 Xrotation Yrotation Zrotation
                JOINT rToeJoint
                {
                    OFFSET   0.000000  -0.050000   0.130000
                    CHANNELS 3 Xrotation Yrotation Zrotation
                    End Site
                    {
                        OFFSET  -0.010000   0.002000   0.060000
                    }
                }
            }
        }
    }
    JOINT lHip
    {
        OFFSET   0.100000  -0.051395   0.000000
        CHANNELS 3 Xrotation Yrotation Zrotation
        JOINT lKnee
        {
            OFFSET   0.000000  -0.410000   0.000000
            CHANNELS 3 Xrotation Yrotation Zrotation
            JOINT lAnkle
            {
                OFFSET   0.000000  -0.390000   0.000000
                CHANNELS 3 Xrotation Yrotation Zrotation
                JOINT lToeJoint
                {
                    OFFSET   0.000000  -0.050000   0.130000
                    CHANNELS 3 Xrotation Yrotation Zrotation
                    End Site
                    {
                        OFFSET   0.010000   0.002000   0.060000
                    }
                }
            }
        }
    }
}
MOTION
Frames: 17
Frame Time:   0.008333
 -2.359799   0.669143   3.888204  13.923762  -0.664123  -3.464195  50.500854  -1.351695   0.617763 -10.181127  -1.170212  -2.475559 -16.015901   2.583187  -4.177921 -17.028855  36.712932   3.781338 -29.266588  24.906774  13.304602  -0.189749  30.286936   0.064555  -0.387868   2.518022  -8.695978 -18.762478 -30.370632  -0.151358 -29.518190 -19.153609 -12.068707  -0.236144 -33.512965  -0.111793  -4.335931  -5.364412   6.863551 -66.017604  -5.263925  -7.469072  91.177226   0.000507   0.001592 -38.052951 -10.177597  -1.045377  -0.426427   0.000148   0.001682 -68.705966   0.590487   9.470271  95.691893   0.000162   0.000167 -35.083740   4.600653   1.386079 -10.639916  -0.004463  -0.002693
 -2.358074   0.672909   3.892311  13.494631  -0.710217  -3.539388  49.569101  -1.334332   0.535790 -10.118101  -1.316137  -2.394485 -15.626177   2.620062  -4.191098 -17.406902  37.344589   2.396243 -30.532594  25.865540  12.324150  -0.200108  31.526467   0.064891  -0.431971   2.443969  -8.760803 -18.933728 -31.065035   1.615051 -30.784297 -20.289828 -10.852805  -0.248740 -34.972268  -0.110449  -4.492737  -5.482899   6.904490 -64.799490  -5.445901  -7.558519  90.503674   0.000673   0.002791 -38.089418 -10.364019  -0.692550  -0.460335   0.000182   0.001470 -67.887123   0.570041   9.430105  95.561713   0.000197   0.000275 -34.067589   4.663859   1.074193 -12.324469  -0.007096  -0.001514
 -2.356190   0.677620   3.896965  13.147556  -0.781120  -3.576643  48.588222  -1.291421   0.431738 -10.076855  -1.444006  -2.323117 -15.188078   2.653797  -4.212267 -17.792311  37.871098   1.007153 -31.718367  26.781394  11.330976  -0.205768  32.693555   0.064120  -0.458664   2.432296  -8.915517 -19.101232 -31.661373   3.389282 -31.960454 -21.389465  -9.648518  -0.256307 -36.352388  -0.107515  -4.621285  -5.717804   6.979600 -63.538160  -5.606969  -7.651692  89.650452   0.000875   0.004317 -38.059367 -10.538136  -0.371260  -0.512778   0.000223   0.001371 -67.043668   0.585537   9.355496  95.284478   0.000367   0.000608 -32.856860   4.704995   0.807994 -14.300881  -0.009032   0.000648
 -2.354204   0.682915   3.902281  12.886956  -0.865096  -3.606825  47.524928  -1.229545   0.336276 -10.119189  -1.544984  -2.251175 -14.755510   2.684497  -4.234381 -18.159241  38.329079  -0.335594 -32.821907  27.648644  10.374827  -0.207275  33.783195   0.062987  -0.478666   2.431018  -9.142750 -19.255459 -32.174121   5.106767 -33.048624 -22.430231  -8.492558  -0.259165 -37.642101  -0.103998  -4.735001  -5.973580   7.126644 -62.271457  -5.761144  -7.736703  88.696318   0.000936   0.005854 -37.957337 -10.695782  -0.077932  -0.658144   0.000322   0.001615 -66.176186   0.629592   9.274208  94.894688   0.000584   0.001068 -31.622296   4.750352   0.569485 -16.355399  -0.010360   0.002367
 -2.352125   0.688564   3.908314  12.701266  -0.963736  -3.626408  46.371551  -1.151414   0.247352 -10.256816  -1.619969  -2.179167 -14.346132   2.712793  -4.254958 -18.499329  38.735521  -1.617539 -33.846519  28.469190   9.471552  -0.205622  34.800276   0.061718  -0.496317   2.428183  -9.404355 -19.393755 -32.617607   6.748187 -34.053525 -23.410612  -7.397301  -0.258225 -38.845113  -0.100175  -4.839615  -6.219573   7.323747 -61.017833  -5.925859  -7.828853  87.693405   0.001062   0.007391 -37.784838 -10.870825   0.193441  -0.073665  -0.000112  -0.000999 -65.254920   0.699418   9.191022  94.469800   0.000810   0.001506 -30.392000   4.797542   0.354376 -18.580015  -0.011084   0.003984
 -2.349999   0.694395   3.915051  12.577396  -1.058552  -3.647585  45.134919  -1.059256   0.176400 -10.487756  -1.673012  -2.099827 -13.964715   2.739094  -4.272322 -18.813277  39.100633  -2.837381 -34.797660  29.246033   8.622797  -0.201663  35.749652   0.060339  -0.513272   2.422145  -9.679945 -19.518786 -33.005147   8.311182 -34.981913 -24.334799  -6.363635  -0.254373 -39.966952  -0.096129  -4.937647  -6.448477   7.553032 -59.757762  -6.075941  -7.911974  86.654343   0.000836   0.008666 -37.604428 -11.016480   0.433347  -0.569497  -0.000019   0.000909 -64.317159   0.783095   9.105633  93.994528   0.000995   0.001916 -29.194642   4.837215   0.156551 -20.822933  -0.011469   0.005164
 -2.347846   0.700276   3.922488  12.499375  -1.145092  -3.670576  43.826763  -0.955316   0.122107 -10.805149  -1.707456  -2.013446 -13.611894   2.763721  -4.286302 -19.103881  39.430928  -3.995588 -35.681129  29.982065   7.826612  -0.196072  36.636254   0.058840  -0.529779   2.414945  -9.961988 -19.634139 -33.346043   9.796391 -35.840564 -25.207179  -5.389089  -0.248351 -41.013589  -0.091917  -5.029912  -6.662564   7.805082 -58.495123  -6.212909  -7.990780  85.620718   0.000344   0.009606 -37.391374 -11.150333   0.651892  -1.155424  -0.000264   0.002566 -63.363050   0.875697   9.017519  93.495017   0.001123   0.002248 -28.028375   4.867911  -0.023314 -23.095591  -0.011531   0.006053
 -2.345415   0.709805   3.929997  12.165698  -1.109235  -3.475236  42.830387  -0.903632  -0.098662 -10.605925  -1.780245  -1.922800 -13.157139   2.613284  -4.319153 -19.464017  39.548059  -5.527806 -36.516727  30.504010   7.087261  -0.193513  37.682653   0.055185  -0.560247   2.318130 -10.192184 -19.562632 -33.477007  11.801208 -36.579283 -25.929019  -4.412115  -0.232808 -41.961804  -0.078306  -5.107352  -7.102433   8.100186 -56.885258  -6.266203  -8.292172  84.197276   0.000087   0.011688 -35.995737 -11.592371   1.288911  -3.010768   0.002563   0.013879 -61.930000   0.990945   8.588819  92.330151   0.003287   0.004799 -25.744587   4.929022  -0.681823 -26.329857  -0.022948   0.007187
 -2.343005   0.721375   3.937879  11.948389  -1.023854  -3.266137  41.737208  -0.820531  -0.314400 -10.359674  -1.826502  -1.844960 -12.636705   2.462765  -4.352613 -19.815466  39.583799  -6.996542 -37.285890  30.980512   6.360127  -0.187816  38.664026   0.051586  -0.580293   2.257678 -10.362029 -19.502584 -33.493743  13.708314 -37.243284 -26.571282  -3.465341  -0.216149 -42.840302  -0.065397  -5.170887  -7.521016   8.265790 -55.188459  -6.328780  -8.577134  82.367543  -0.001135   0.013573 -34.252239 -11.990622   1.858873  -5.066537   0.002416   0.022451 -60.400928   1.133665   8.105914  90.718913   0.005393   0.007965 -23.191461   4.959169  -1.255335 -29.628866  -0.030364   0.007367
 -2.340705   0.733979   3.946283  11.874785  -0.885153  -3.063394  40.498028  -0.712728  -0.515286 -10.194476  -1.844458  -1.770808 -12.123055   2.320963  -4.378703 -20.144430  39.581997  -8.379329 -37.994591  31.415716   5.672811  -0.180644  39.576105   0.048757  -0.603032   2.181542 -10.486980 -19.455897 -33.444407  15.487823 -37.848426 -27.144229  -2.570144  -0.200014 -43.651035  -0.054341  -5.236024  -7.873491   8.372295 -53.450678  -6.394823  -8.833641  80.298200  -0.003780   0.014348 -32.364774 -12.338160   2.382801  -7.234003   0.000025   0.027302 -58.825503   1.273321   7.604165  88.840247   0.006865   0.010674 -20.586899   4.944367  -1.752118 -32.892466  -0.034250   0.006882
 -2.338512   0.746930   3.955290  11.900364  -0.720741  -2.847436  39.132859  -0.580766  -0.725806 -10.141628  -1.833989  -1.713728 -11.638248   2.188776  -4.398459 -20.454025  39.567036  -9.684656 -38.650438  31.821179   5.025703  -0.173051  40.422950   0.046727  -0.630850   2.079358 -10.579693 -19.427360 -33.356061  17.151375 -38.404542 -27.661950  -1.723070  -0.185050 -44.397781  -0.045195  -5.305162  -8.153613   8.454009 -51.728159  -6.499611  -9.054455  78.115292  -0.005985   0.013885 -30.407266 -12.630179   2.898049  -9.470028  -0.002030   0.029743 -57.223935   1.387885   7.081893  86.796605   0.008293   0.013006 -18.015573   4.856249  -2.174814 -36.042638  -0.035749   0.008105
 -2.336398   0.759803   3.964939  11.981955  -0.535048  -2.622926  37.672717  -0.425278  -0.940743 -10.203622  -1.796677  -1.675392 -11.187925   2.066073  -4.413623 -20.749422  39.552748 -10.921985 -39.260617  32.207581   4.414816  -0.165601  41.210872   0.045380  -0.661734   1.962001 -10.655442 -19.421654 -33.244177  18.709450 -38.919633 -28.135503  -0.918124  -0.171423 -45.086181  -0.037725  -5.377255  -8.370604   8.535772 -50.019881  -6.609174  -9.273953  75.891671  -0.008287   0.012913 -28.449595 -12.929053   3.375800 -11.549533  -0.004781   0.030632 -55.640841   1.478091   6.550832  84.719620   0.009274   0.014713 -15.550522   4.723816  -2.545660 -38.523943  -0.034734   0.008994
 -2.334393   0.772412   3.975223  12.086942  -0.315410  -2.413036  36.152447  -0.249273  -1.146321 -10.371391  -1.737503  -1.646126 -10.773007   1.952321  -4.424050 -21.035476  39.544395 -12.095712 -39.831119  32.580437   3.835974  -0.158440  41.945624   0.044489  -0.693239   1.841999 -10.732478 -19.441039 -33.119835  20.171605 -39.399963 -28.574420  -0.150229  -0.159054 -45.722419  -0.031644  -5.450140  -8.540216   8.634883 -48.342543  -6.716295  -9.491301  73.723986  -0.010901   0.011320 -26.562478 -13.207116   3.828668 -12.852978  -0.006397   0.027913 -54.093877   1.554082   6.039234  82.692199   0.009146   0.015268 -13.197078   4.582646  -2.880718 -40.150696  -0.031421   0.008098
 -2.332242   0.786965   3.986612  11.833316  -0.279976  -2.427732  34.295833   0.184192  -1.090705  -9.644761  -1.693122  -1.811539  -9.951687   1.727786  -4.382711 -20.992252  39.294087 -13.754016 -40.544890  32.914431   3.641231  -0.141239  42.446014   0.038607  -0.652901   1.943499 -10.926614 -19.021868 -32.597884  21.856386 -40.078026 -28.977010   0.539365  -0.141013 -46.210194  -0.024235  -5.366589  -8.941965   9.002825 -45.794656  -7.036541  -9.373946  70.719027  -0.012573   0.011528 -23.444460 -13.454989   4.687392 -19.130482  -0.007422   0.048601 -51.584784   1.396245   5.691507  79.771301   0.014588   0.021075 -10.199585   4.445404  -3.351619 -46.967988  -0.043897   0.018275
 -2.330031   0.803550   3.998228  11.582975  -0.281011  -2.400740  32.456702   0.576871  -1.075207  -8.900537  -1.659526  -2.006486  -9.119447   1.509865  -4.331296 -20.932801  39.016475 -15.323450 -41.188428  33.210676   3.468886  -0.125220  42.904731   0.032914  -0.618528   2.003059 -10.958283 -18.642151 -32.030980  23.386428 -40.687039 -29.314652   1.170779  -0.124412 -46.655315  -0.018322  -5.282551  -9.302109   9.241826 -43.206227  -7.302699  -9.266865  67.409390  -0.014795   0.012290 -20.307246 -13.635045   5.538126 -21.842468  -0.008043   0.049534 -49.115141   1.190302   5.313154  76.862674   0.020086   0.027805  -7.808696   4.314669  -3.880458 -46.574539  -0.033649   0.013863
 -2.327762   0.821231   4.010305  11.363795  -0.394107  -2.339279  30.580567   0.961177  -1.109582  -8.229851  -1.613162  -2.237074  -8.327828   1.307664  -4.279558 -20.866339  38.743032 -16.794810 -41.778251  33.479921   3.320467  -0.111084  43.327942   0.027807  -0.593702   2.025999 -10.889511 -18.297930 -31.456556  24.779162 -41.240171 -29.602436   1.745302  -0.109890 -47.059059  -0.014087  -5.212266  -9.584581   9.367453 -40.619171  -7.606853  -9.154529  63.858907  -0.013942   0.016139 -16.814604 -13.796449   6.406725 -23.652032  -0.008667   0.049357 -46.561163   0.984274   4.944478  73.652448   0.026583   0.037286  -5.018952   4.166117  -4.346355 -46.259769  -0.025899   0.009995
 -2.325141   0.839450   4.023328  11.207315  -0.696511  -2.268648  28.492008   1.422530  -1.080374  -7.899759  -1.497156  -2.306631  -7.480577   1.602450  -4.230786 -20.598789  38.635855 -18.239134 -42.285791  33.792662   3.309645  -0.100022  43.729689   0.024588  -0.569931   2.057739 -10.520320 -17.744465 -31.058726  24.718736 -41.712054 -29.509930   2.122175  -0.099297 -47.578147  -0.014028  -5.008906 -10.518363  10.077297 -38.139430  -7.905313  -9.035631  60.259656  -0.011158   0.024477 -13.162914 -13.894839   7.280267 -23.506100  -0.006901   0.038465 -43.904925   0.742594   4.552662  70.275443   0.034430   0.052504  -1.992730   4.083224  -4.468977 -46.007945  -0.020456   0.006173
